<svg width="40" height="42" viewBox="0 0 40 42" fill="none" xmlns="http://www.w3.org/2000/svg">
<g style="mix-blend-mode:color-dodge">
<path d="M19.9375 2.875C19.9375 2.875 7.60416 13.6292 0.711769 19.4533C0.49245 19.6464 0.31575 19.8838 0.193131 20.1502C0.0705121 20.4167 0.00471246 20.7062 0 21C0 21.5341 0.210055 22.0464 0.583956 22.424C0.957856 22.8017 1.46497 23.0139 1.99375 23.0139H5.98125V37.1111C5.98125 37.6452 6.19131 38.1575 6.56521 38.5351C6.93911 38.9128 7.44622 39.125 7.975 39.125H13.9563C14.485 39.125 14.9921 38.9128 15.366 38.5351C15.7399 38.1575 15.95 37.6452 15.95 37.1111V29.0556H23.925V37.1111C23.925 37.6452 24.1351 38.1575 24.509 38.5351C24.8829 38.9128 25.39 39.125 25.9187 39.125H31.9C32.4288 39.125 32.9359 38.9128 33.3098 38.5351C33.6837 38.1575 33.8937 37.6452 33.8937 37.1111V23.0139H37.8812C38.41 23.0139 38.9171 22.8017 39.291 22.424C39.6649 22.0464 39.875 21.5341 39.875 21C39.8722 20.7006 39.802 20.4057 39.6697 20.1377C39.5374 19.8698 39.3465 19.6357 39.1114 19.4533C32.2668 13.6292 19.9375 2.875 19.9375 2.875Z" fill="#302F33"/>
</g>
</svg>
