<svg width="32" height="32" viewBox="0 0 32 32" fill="none" xmlns="http://www.w3.org/2000/svg">
<mask id="mask0_486_155" style="mask-type:alpha" maskUnits="userSpaceOnUse" x="0" y="0" width="32" height="32">
<rect x="0.5" y="0.5" width="31" height="31" fill="#D9D9D9"/>
</mask>
<g mask="url(#mask0_486_155)">
<path d="M17.2917 20.8437V18.9062H22.4583V20.8437H17.2917ZM19.2292 27.625V26.0104H17.2917V24.0729H19.2292V22.4583H21.1667V27.625H19.2292ZM22.4583 26.0104V24.0729H27.625V26.0104H22.4583ZM23.75 22.4583V17.2917H25.6875V18.9062H27.625V20.8437H25.6875V22.4583H23.75ZM27.3344 13.4167H24.6542C24.0944 11.5222 23.0288 9.97222 21.4573 8.76667C19.8858 7.56111 18.0667 6.95833 16 6.95833C13.4812 6.95833 11.3446 7.83559 9.5901 9.5901C7.83559 11.3446 6.95833 13.4812 6.95833 16C6.95833 17.55 7.30816 18.9708 8.00781 20.2625C8.70747 21.5542 9.64931 22.609 10.8333 23.4271V19.875H13.4167V27.625H5.66667V25.0417H8.70208C7.36736 23.9653 6.3125 22.6467 5.5375 21.0859C4.7625 19.5252 4.375 17.8299 4.375 16C4.375 14.3854 4.68177 12.8731 5.29531 11.463C5.90885 10.053 6.73767 8.82587 7.78177 7.78177C8.82587 6.73767 10.053 5.90885 11.463 5.29531C12.8731 4.68177 14.3854 4.375 16 4.375C18.7771 4.375 21.2151 5.23073 23.3141 6.94219C25.413 8.65365 26.7531 10.8118 27.3344 13.4167Z" fill="white"/>
</g>
</svg>
