<svg width="32" height="30" viewBox="0 0 32 30" fill="none" xmlns="http://www.w3.org/2000/svg">
<mask id="mask0_129_1208" style="mask-type:alpha" maskUnits="userSpaceOnUse" x="0" y="0" width="32" height="30">
<rect x="0.293945" width="31.6805" height="30" fill="#D9D9D9"/>
</mask>
<g mask="url(#mask0_129_1208)">
<path d="M14.8144 26.1875C12.1523 25.875 9.94678 24.776 8.19776 22.8906C6.44873 21.0052 5.57422 18.7917 5.57422 16.25C5.57422 14.875 5.86022 13.5573 6.43223 12.2969C7.00424 11.0365 7.81825 9.9375 8.87427 9L10.7553 10.7812C9.91928 11.4896 9.28677 12.3125 8.85777 13.25C8.42876 14.1875 8.21426 15.1875 8.21426 16.25C8.21426 18.0833 8.83027 19.7031 10.0623 21.1094C11.2943 22.5156 12.8783 23.375 14.8144 23.6875V26.1875ZM17.4544 26.1875V23.6875C19.3684 23.3542 20.9469 22.4896 22.19 21.0938C23.433 19.6979 24.0545 18.0833 24.0545 16.25C24.0545 14.1667 23.2845 12.3958 21.7445 10.9375C20.2044 9.47917 18.3344 8.75 16.1344 8.75H16.0354L17.4874 10.125L15.6394 11.875L11.0193 7.5L15.6394 3.125L17.4874 4.875L16.0354 6.25H16.1344C19.0824 6.25 21.5795 7.21875 23.6255 9.15625C25.6715 11.0938 26.6945 13.4583 26.6945 16.25C26.6945 18.7708 25.82 20.974 24.071 22.8594C22.322 24.7448 20.1164 25.8542 17.4544 26.1875Z" fill="white"/>
</g>
</svg>
