<svg width="40" height="40" viewBox="0 0 40 40" fill="none" xmlns="http://www.w3.org/2000/svg">
<mask id="mask0_384_139" style="mask-type:alpha" maskUnits="userSpaceOnUse" x="0" y="0" width="40" height="40">
<rect width="40" height="40" fill="#D9D9D9"/>
</mask>
<g mask="url(#mask0_384_139)">
<path d="M21.6667 26.25V23.75H28.3333V26.25H21.6667ZM24.1667 35V32.9167H21.6667V30.4167H24.1667V28.3333H26.6667V35H24.1667ZM28.3333 32.9167V30.4167H35V32.9167H28.3333ZM30 28.3333V21.6667H32.5V23.75H35V26.25H32.5V28.3333H30ZM34.625 16.6667H31.1667C30.4444 14.2222 29.0694 12.2222 27.0417 10.6667C25.0139 9.11111 22.6667 8.33333 20 8.33333C16.75 8.33333 13.9931 9.46528 11.7292 11.7292C9.46528 13.9931 8.33333 16.75 8.33333 20C8.33333 22 8.78472 23.8333 9.6875 25.5C10.5903 27.1667 11.8056 28.5278 13.3333 29.5833V25H16.6667V35H6.66667V31.6667H10.5833C8.86111 30.2778 7.5 28.5764 6.5 26.5625C5.5 24.5486 5 22.3611 5 20C5 17.9167 5.39583 15.9653 6.1875 14.1458C6.97917 12.3264 8.04861 10.7431 9.39583 9.39583C10.7431 8.04861 12.3264 6.97917 14.1458 6.1875C15.9653 5.39583 17.9167 5 20 5C23.5833 5 26.7292 6.10417 29.4375 8.3125C32.1458 10.5208 33.875 13.3056 34.625 16.6667Z" fill="white"/>
</g>
</svg>
