<svg width="29" height="30" viewBox="0 0 29 30" fill="none" xmlns="http://www.w3.org/2000/svg">
<mask id="mask0_129_1102" style="mask-type:alpha" maskUnits="userSpaceOnUse" x="0" y="0" width="29" height="30">
<rect x="0.12207" width="28.5366" height="30" fill="#D9D9D9"/>
</mask>
<g mask="url(#mask0_129_1102)">
<path d="M14.3902 21.25C16.0351 21.25 17.4371 20.6406 18.5964 19.4219C19.7557 18.2031 20.3354 16.7292 20.3354 15C20.3354 13.2708 19.7557 11.7969 18.5964 10.5781C17.4371 9.35938 16.0351 8.75 14.3902 8.75C12.7454 8.75 11.3434 9.35938 10.1841 10.5781C9.02477 11.7969 8.44512 13.2708 8.44512 15C8.44512 16.7292 9.02477 18.2031 10.1841 19.4219C11.3434 20.6406 12.7454 21.25 14.3902 21.25ZM14.3902 27.5C12.7454 27.5 11.1997 27.1719 9.75305 26.5156C8.3064 25.8594 7.04802 24.9688 5.9779 23.8438C4.90777 22.7188 4.06059 21.3958 3.43636 19.875C2.81212 18.3542 2.5 16.7292 2.5 15C2.5 13.2708 2.81212 11.6458 3.43636 10.125C4.06059 8.60417 4.90777 7.28125 5.9779 6.15625C7.04802 5.03125 8.3064 4.14063 9.75305 3.48438C11.1997 2.82812 12.7454 2.5 14.3902 2.5C16.0351 2.5 17.5808 2.82812 19.0274 3.48438C20.4741 4.14063 21.7325 5.03125 22.8026 6.15625C23.8727 7.28125 24.7199 8.60417 25.3441 10.125C25.9684 11.6458 26.2805 13.2708 26.2805 15C26.2805 16.7292 25.9684 18.3542 25.3441 19.875C24.7199 21.3958 23.8727 22.7188 22.8026 23.8438C21.7325 24.9688 20.4741 25.8594 19.0274 26.5156C17.5808 27.1719 16.0351 27.5 14.3902 27.5ZM14.3902 25C17.0457 25 19.295 24.0312 21.138 22.0938C22.9809 20.1562 23.9024 17.7917 23.9024 15C23.9024 12.2083 22.9809 9.84375 21.138 7.90625C19.295 5.96875 17.0457 5 14.3902 5C11.7348 5 9.48552 5.96875 7.64253 7.90625C5.79954 9.84375 4.87805 12.2083 4.87805 15C4.87805 17.7917 5.79954 20.1562 7.64253 22.0938C9.48552 24.0312 11.7348 25 14.3902 25Z" fill="white"/>
</g>
</svg>
