<svg width="48" height="52" viewBox="0 0 48 52" fill="none" xmlns="http://www.w3.org/2000/svg">
<mask id="mask0_133_802" style="mask-type:alpha" maskUnits="userSpaceOnUse" x="0" y="0" width="48" height="52">
<rect x="0.739258" y="0.969727" width="46.8639" height="50.9091" fill="#D9D9D9"/>
</mask>
<g mask="url(#mask0_133_802)">
<path d="M14.4073 45.5151C13.3333 45.5151 12.414 45.0997 11.6492 44.2689C10.8844 43.4381 10.502 42.4393 10.502 41.2726V13.6969H8.54932V9.45446H18.3126V7.33325H30.0286V9.45446H39.7919V13.6969H37.8393V41.2726C37.8393 42.4393 37.4569 43.4381 36.6921 44.2689C35.9273 45.0997 35.0079 45.5151 33.9339 45.5151H14.4073ZM33.9339 13.6969H14.4073V41.2726H33.9339V13.6969ZM18.3126 37.0302H22.218V17.9393H18.3126V37.0302ZM26.1233 37.0302H30.0286V17.9393H26.1233V37.0302Z" fill="white"/>
</g>
</svg>
