<svg width="32" height="30" viewBox="0 0 32 30" fill="none" xmlns="http://www.w3.org/2000/svg">
<mask id="mask0_464_134" style="mask-type:alpha" maskUnits="userSpaceOnUse" x="0" y="0" width="32" height="30">
<rect width="31.6805" height="30" fill="#D9D9D9"/>
</mask>
<g mask="url(#mask0_464_134)">
<path d="M14.5204 26.1875C11.8584 25.875 9.65284 24.776 7.90381 22.8906C6.15479 21.0052 5.28027 18.7917 5.28027 16.25C5.28027 14.875 5.56628 13.5573 6.13829 12.2969C6.71029 11.0365 7.52431 9.9375 8.58032 9L10.4614 10.7812C9.62534 11.4896 8.99283 12.3125 8.56382 13.25C8.13482 14.1875 7.92031 15.1875 7.92031 16.25C7.92031 18.0833 8.53632 19.7031 9.76834 21.1094C11.0004 22.5156 12.5844 23.375 14.5204 23.6875V26.1875ZM17.1605 26.1875V23.6875C19.0745 23.3542 20.653 22.4896 21.896 21.0938C23.139 19.6979 23.7605 18.0833 23.7605 16.25C23.7605 14.1667 22.9905 12.3958 21.4505 10.9375C19.9105 9.47917 18.0405 8.75 15.8404 8.75H15.7414L17.1935 10.125L15.3454 11.875L10.7254 7.5L15.3454 3.125L17.1935 4.875L15.7414 6.25H15.8404C18.7885 6.25 21.2855 7.21875 23.3315 9.15625C25.3776 11.0938 26.4006 13.4583 26.4006 16.25C26.4006 18.7708 25.5261 20.974 23.777 22.8594C22.028 24.7448 19.8225 25.8542 17.1605 26.1875Z" fill="white"/>
</g>
</svg>
