<svg width="31" height="31" viewBox="0 0 31 31" fill="none" xmlns="http://www.w3.org/2000/svg">
<mask id="mask0_480_149" style="mask-type:alpha" maskUnits="userSpaceOnUse" x="0" y="0" width="31" height="31">
<rect width="31" height="31" fill="#D9D9D9"/>
</mask>
<g mask="url(#mask0_480_149)">
<path d="M23.8958 12.9167H28.4167V15.5001H25.8333V22.6042C25.8333 23.5084 25.5212 24.2727 24.8969 24.897C24.2726 25.5213 23.5083 25.8334 22.6042 25.8334C21.7 25.8334 20.9358 25.5213 20.3115 24.897C19.6872 24.2727 19.375 23.5084 19.375 22.6042C19.375 21.7001 19.6872 20.9358 20.3115 20.3115C20.9358 19.6872 21.7 19.3751 22.6042 19.3751C22.7764 19.3751 22.9701 19.3912 23.1854 19.4235C23.4007 19.4558 23.6375 19.5258 23.8958 19.6334V12.9167ZM3.875 25.8334V22.2167C3.875 21.4633 4.06337 20.7852 4.4401 20.1824C4.81684 19.5796 5.31736 19.1167 5.94167 18.7938C7.27639 18.1265 8.63264 17.6259 10.0104 17.2923C11.3882 16.9586 12.7875 16.7917 14.2083 16.7917C15.1125 16.7917 16.0113 16.8617 16.9047 17.0016C17.7981 17.1416 18.6969 17.3515 19.601 17.6313C19.1705 17.8897 18.783 18.2018 18.4385 18.5678C18.0941 18.9338 17.7927 19.332 17.5344 19.7626C16.9747 19.6334 16.4203 19.5365 15.8714 19.472C15.3224 19.4074 14.7681 19.3751 14.2083 19.3751C12.9812 19.3751 11.7757 19.5258 10.5917 19.8272C9.40764 20.1286 8.24514 20.5591 7.10417 21.1188C6.91042 21.2265 6.75434 21.3772 6.63594 21.5709C6.51753 21.7647 6.45833 21.9799 6.45833 22.2167V23.2501H16.824C16.867 23.6806 16.9693 24.1112 17.1307 24.5417C17.2922 24.9723 17.5128 25.4029 17.7927 25.8334H3.875ZM14.2083 15.5001C12.7875 15.5001 11.5712 14.9942 10.5594 13.9824C9.54757 12.9706 9.04167 11.7542 9.04167 10.3334C9.04167 8.91258 9.54757 7.69626 10.5594 6.68446C11.5712 5.67265 12.7875 5.16675 14.2083 5.16675C15.6292 5.16675 16.8455 5.67265 17.8573 6.68446C18.8691 7.69626 19.375 8.91258 19.375 10.3334C19.375 11.7542 18.8691 12.9706 17.8573 13.9824C16.8455 14.9942 15.6292 15.5001 14.2083 15.5001ZM14.2083 12.9167C14.9187 12.9167 15.5269 12.6638 16.0328 12.1579C16.5387 11.652 16.7917 11.0438 16.7917 10.3334C16.7917 9.623 16.5387 9.01484 16.0328 8.50894C15.5269 8.00303 14.9187 7.75008 14.2083 7.75008C13.4979 7.75008 12.8898 8.00303 12.3839 8.50894C11.878 9.01484 11.625 9.623 11.625 10.3334C11.625 11.0438 11.878 11.652 12.3839 12.1579C12.8898 12.6638 13.4979 12.9167 14.2083 12.9167Z" fill="white"/>
</g>
</svg>
