<svg width="51" height="56" viewBox="0 0 51 56" fill="none" xmlns="http://www.w3.org/2000/svg">
<mask id="mask0_133_793" style="mask-type:alpha" maskUnits="userSpaceOnUse" x="0" y="0" width="51" height="56">
<rect x="0.188965" y="0.424316" width="50.7692" height="55.1515" fill="#D9D9D9"/>
</mask>
<g mask="url(#mask0_133_793)">
<path d="M20.2848 38.341L35.0925 28.0001L20.2848 17.6592V38.341ZM25.5733 50.9799C22.647 50.9799 19.897 50.3766 17.3233 49.1702C14.7496 47.9638 12.5108 46.3265 10.6069 44.2583C8.70309 42.1901 7.19588 39.7581 6.0853 36.9622C4.97472 34.1663 4.41943 31.1789 4.41943 28.0001C4.41943 24.8212 4.97472 21.8338 6.0853 19.0379C7.19588 16.2421 8.70309 13.81 10.6069 11.7419C12.5108 9.67367 14.7496 8.03636 17.3233 6.82992C19.897 5.62348 22.647 5.02026 25.5733 5.02026C28.4996 5.02026 31.2496 5.62348 33.8233 6.82992C36.397 8.03636 38.6358 9.67367 40.5396 11.7419C42.4435 13.81 43.9507 16.2421 45.0613 19.0379C46.1718 21.8338 46.7271 24.8212 46.7271 28.0001C46.7271 31.1789 46.1718 34.1663 45.0613 36.9622C43.9507 39.7581 42.4435 42.1901 40.5396 44.2583C38.6358 46.3265 36.397 47.9638 33.8233 49.1702C31.2496 50.3766 28.4996 50.9799 25.5733 50.9799ZM25.5733 46.3839C30.2976 46.3839 34.2992 44.603 37.5781 41.0411C40.8569 37.4792 42.4964 33.1322 42.4964 28.0001C42.4964 22.8679 40.8569 18.5209 37.5781 14.959C34.2992 11.3972 30.2976 9.61622 25.5733 9.61622C20.8489 9.61622 16.8473 11.3972 13.5685 14.959C10.2896 18.5209 8.6502 22.8679 8.6502 28.0001C8.6502 33.1322 10.2896 37.4792 13.5685 41.0411C16.8473 44.603 20.8489 46.3839 25.5733 46.3839Z" fill="white"/>
</g>
</svg>
