<svg width="33" height="30" viewBox="0 0 33 30" fill="none" xmlns="http://www.w3.org/2000/svg">
<mask id="mask0_129_1217" style="mask-type:alpha" maskUnits="userSpaceOnUse" x="0" y="0" width="33" height="30">
<rect x="0.486328" width="32.039" height="30" fill="#D9D9D9"/>
</mask>
<g mask="url(#mask0_129_1217)">
<path d="M11.2661 25C11.0213 25 10.7933 24.9427 10.5819 24.8281C10.3705 24.7135 10.2092 24.5521 10.098 24.3438L7.49482 20H9.43051L10.7655 22.5H13.8359V21.25H11.5664L10.2315 18.75H6.76059L4.85828 15.625C4.81378 15.5208 4.77484 15.4167 4.74147 15.3125C4.70809 15.2083 4.69141 15.1042 4.69141 15C4.69141 14.9167 4.74703 14.7083 4.85828 14.375L6.76059 11.25H10.2315L11.5664 8.75H13.8359V7.5H10.7655L9.43051 10H7.49482L10.098 5.65625C10.2092 5.44792 10.3705 5.28646 10.5819 5.17188C10.7933 5.05729 11.0213 5 11.2661 5H14.5034C14.8816 5 15.1986 5.11979 15.4545 5.35938C15.7104 5.59896 15.8383 5.89583 15.8383 6.25V11.25H13.8359L12.5009 12.5H15.8383V16.25H12.9014L11.5664 13.75H8.49604L7.16108 15H10.7655L12.1004 17.5H15.8383V23.75C15.8383 24.1042 15.7104 24.401 15.4545 24.6406C15.1986 24.8802 14.8816 25 14.5034 25H11.2661ZM18.5082 25C18.13 25 17.8129 24.8802 17.5571 24.6406C17.3012 24.401 17.1733 24.1042 17.1733 23.75V17.5H20.9112L22.2461 15H25.8505L24.5155 13.75H21.4451L20.1102 16.25H17.1733V12.5H20.5107L19.1757 11.25H17.1733V6.25C17.1733 5.89583 17.3012 5.59896 17.5571 5.35938C17.8129 5.11979 18.13 5 18.5082 5H21.7455C21.9902 5 22.2183 5.05729 22.4297 5.17188C22.641 5.28646 22.8023 5.44792 22.9136 5.65625L25.5168 10H23.5811L22.2461 7.5H19.1757V8.75H21.4451L22.7801 11.25H26.251L28.1533 14.375C28.1978 14.4792 28.2367 14.5833 28.2701 14.6875C28.3035 14.7917 28.3202 14.8958 28.3202 15C28.3202 15.0833 28.2646 15.2917 28.1533 15.625L26.251 18.75H22.7801L21.4451 21.25H19.1757V22.5H22.2461L23.5811 20H25.5168L22.9136 24.3438C22.8023 24.5521 22.641 24.7135 22.4297 24.8281C22.2183 24.9427 21.9902 25 21.7455 25H18.5082Z" fill="white"/>
</g>
</svg>
