<svg width="31" height="34" viewBox="0 0 31 34" fill="none" xmlns="http://www.w3.org/2000/svg">
<mask id="mask0_133_764" style="mask-type:alpha" maskUnits="userSpaceOnUse" x="0" y="0" width="31" height="34">
<rect x="0.512695" y="0.13623" width="30" height="33.4813" fill="#D9D9D9"/>
</mask>
<g mask="url(#mask0_133_764)">
<path d="M14.2632 29.3625C11.7424 29.0138 9.65381 27.7873 7.99756 25.6831C6.34131 23.5789 5.51318 21.1085 5.51318 18.2719C5.51318 16.7373 5.78402 15.2667 6.32568 13.86C6.86735 12.4533 7.63818 11.2268 8.63818 10.1805L10.4194 12.1685C9.62777 12.959 9.02881 13.8774 8.62256 14.9237C8.21631 15.97 8.01318 17.0861 8.01318 18.2719C8.01318 20.3179 8.59652 22.1257 9.76318 23.6951C10.9299 25.2646 12.4299 26.2237 14.2632 26.5724V29.3625ZM16.7632 29.3625V26.5724C18.5757 26.2004 20.0705 25.2355 21.2476 23.6777C22.4246 22.1199 23.0132 20.3179 23.0132 18.2719C23.0132 15.9468 22.284 13.9704 20.8257 12.3429C19.3674 10.7153 17.5965 9.90153 15.5132 9.90153H15.4194L16.7944 11.4361L15.0444 13.3892L10.6694 8.50647L15.0444 3.62378L16.7944 5.57686L15.4194 7.11142H15.5132C18.3049 7.11142 20.6694 8.19258 22.6069 10.3549C24.5444 12.5173 25.5132 15.1562 25.5132 18.2719C25.5132 21.0852 24.6851 23.544 23.0288 25.6482C21.3726 27.7524 19.284 28.9905 16.7632 29.3625Z" fill="white"/>
</g>
</svg>
