<svg width="32" height="36" viewBox="0 0 32 36" fill="none" xmlns="http://www.w3.org/2000/svg">
<path d="M12.8972 17.9367L28.6227 12.265V21.6952C27.636 21.1313 26.5193 20.8372 25.384 20.8424C22.0639 20.8424 19.3729 23.2697 19.3729 26.2639C19.3729 29.2581 22.0639 31.6854 25.384 31.6854C28.7057 31.6854 31.3967 29.2581 31.3967 26.2639V10.3262C31.3967 8.4197 31.3967 6.82133 31.2475 5.54808C31.2273 5.37165 31.203 5.1957 31.1746 5.0204C31.0322 4.15228 30.7778 3.33862 30.2895 2.66115C29.9833 2.23573 29.5931 1.8782 29.1432 1.61089L29.128 1.60238C27.8206 0.817659 26.3488 0.873831 24.8346 1.22108C23.3695 1.55812 21.5518 2.2424 19.3237 3.08499L15.4508 4.54719C14.408 4.9404 13.5229 5.27403 12.8277 5.61958C12.09 5.98725 11.4542 6.42132 10.976 7.06815C10.4995 7.71499 10.3011 8.41289 10.2096 9.16867C10.1248 9.88019 10.1248 10.7449 10.1248 11.7645V25.0315C9.13818 24.4676 8.0214 24.1735 6.88609 24.1787C3.566 24.1787 0.875 26.6061 0.875 29.6002C0.875 32.5944 3.566 35.0218 6.88609 35.0218C10.2079 35.0218 12.8989 32.5944 12.8989 29.6002L12.8972 17.9367Z" fill="white"/>
</svg>
