<svg width="25" height="31" viewBox="0 0 25 31" fill="none" xmlns="http://www.w3.org/2000/svg">
<mask id="mask0_133_808" style="mask-type:alpha" maskUnits="userSpaceOnUse" x="0" y="0" width="25" height="31">
<rect x="0.592285" width="24.0952" height="31" fill="#D9D9D9"/>
</mask>
<g mask="url(#mask0_133_808)">
<path d="M20.2698 27.125L13.9449 18.9875C13.4429 19.5042 12.8656 19.9132 12.213 20.2146C11.5604 20.516 10.866 20.6667 10.1298 20.6667C8.30591 20.6667 6.76231 19.854 5.49899 18.2286C4.23567 16.6033 3.604 14.6174 3.604 12.2708C3.604 9.92431 4.23567 7.93837 5.49899 6.31302C6.76231 4.68767 8.30591 3.875 10.1298 3.875C11.9537 3.875 13.4972 4.68767 14.7606 6.31302C16.0239 7.93837 16.6556 9.92431 16.6556 12.2708C16.6556 13.2181 16.5384 14.1115 16.3042 14.951C16.0699 15.7906 15.752 16.5333 15.3504 17.1792L21.6754 25.3167L20.2698 27.125ZM10.1298 18.0833C11.3847 18.0833 12.4515 17.5182 13.3299 16.388C14.2084 15.2578 14.6476 13.8854 14.6476 12.2708C14.6476 10.6562 14.2084 9.28385 13.3299 8.15365C12.4515 7.02344 11.3847 6.45833 10.1298 6.45833C8.87482 6.45833 7.80811 7.02344 6.92964 8.15365C6.05117 9.28385 5.61194 10.6562 5.61194 12.2708C5.61194 13.8854 6.05117 15.2578 6.92964 16.388C7.80811 17.5182 8.87482 18.0833 10.1298 18.0833Z" fill="black"/>
</g>
</svg>
