<svg width="41" height="40" viewBox="0 0 41 40" fill="none" xmlns="http://www.w3.org/2000/svg">
<path d="M32.7056 17.7304C26.2588 13.9017 15.6249 13.5498 9.47053 15.4176C8.48198 15.7175 7.437 15.1597 7.1377 14.1713C6.83821 13.1824 7.39545 12.138 8.38436 11.8376C15.4493 9.69317 27.1932 10.1073 34.615 14.5129C35.5041 15.0407 35.7954 16.1887 35.2686 17.0761C34.7413 17.965 33.5922 18.2583 32.7054 17.7304M32.4944 23.4009C32.0421 24.1349 31.0824 24.3651 30.3495 23.9145C24.975 20.6108 16.7791 19.6536 10.4204 21.5838C9.59592 21.8327 8.72486 21.3681 8.47446 20.5449C8.35508 20.1491 8.3975 19.7222 8.59241 19.3577C8.78733 18.9932 9.11883 18.7208 9.51424 18.6004C16.778 16.396 25.8083 17.4635 31.9814 21.2572C32.7144 21.7086 32.9451 22.6687 32.4944 23.4009ZM30.0471 28.8468C29.9619 28.9868 29.85 29.1085 29.7177 29.2051C29.5854 29.3017 29.4354 29.3713 29.2762 29.4098C29.117 29.4483 28.9517 29.4551 28.7899 29.4297C28.6281 29.4042 28.4729 29.3472 28.3331 29.2617C23.6366 26.3913 17.7252 25.7431 10.7634 27.3333C10.6039 27.3698 10.4388 27.3745 10.2774 27.3471C10.1161 27.3197 9.96173 27.2609 9.82315 27.1738C9.68458 27.0868 9.56451 26.9733 9.4698 26.8399C9.37509 26.7065 9.30759 26.5557 9.27117 26.3961C9.2345 26.2366 9.22966 26.0713 9.25694 25.9099C9.28421 25.7484 9.34307 25.594 9.43014 25.4553C9.51721 25.3166 9.63078 25.1965 9.76434 25.1018C9.89791 25.0071 10.0488 24.9397 10.2085 24.9034C17.8269 23.162 24.3619 23.9114 29.6335 27.1327C29.7733 27.218 29.8948 27.3301 29.9913 27.4624C30.0877 27.5948 30.1571 27.7449 30.1955 27.904C30.2339 28.0632 30.2406 28.2284 30.2152 28.3902C30.1898 28.552 30.1327 28.7071 30.0473 28.8468M20.8746 0C9.82949 0 0.875 8.95413 0.875 19.9996C0.875 31.0462 9.82949 40 20.8748 40C31.9207 40 40.875 31.0462 40.875 19.9996C40.875 8.95431 31.9209 0 20.8748 0" fill="white"/>
</svg>
