<svg width="305" height="306" viewBox="0 0 305 306" fill="none" xmlns="http://www.w3.org/2000/svg">
<path d="M242.708 135.637C193.551 106.348 112.468 103.656 65.5409 117.945C58.0032 120.239 50.0353 115.972 47.7531 108.411C45.4695 100.845 49.7184 92.8554 57.2589 90.5574C111.129 74.1527 200.676 77.3208 257.267 111.024C264.047 115.062 266.268 123.844 262.251 130.632C258.23 137.433 249.469 139.676 242.707 135.637M241.098 179.017C237.649 184.632 230.332 186.393 224.743 182.946C183.763 157.673 121.269 150.35 72.7837 165.116C66.497 167.02 59.8552 163.466 57.9459 157.168C57.0356 154.141 57.3591 150.875 58.8453 148.086C60.3315 145.298 62.8592 143.214 65.8742 142.293C121.261 125.429 190.116 133.596 237.186 162.618C242.775 166.071 244.534 173.415 241.098 179.017ZM222.437 220.678C221.788 221.749 220.934 222.68 219.926 223.419C218.917 224.158 217.773 224.69 216.559 224.985C215.345 225.28 214.085 225.331 212.851 225.137C211.617 224.942 210.434 224.506 209.368 223.852C173.558 201.893 128.483 196.935 75.3991 209.1C74.1828 209.379 72.9236 209.415 71.6935 209.205C70.4633 208.996 69.2863 208.546 68.2297 207.88C67.173 207.214 66.2575 206.346 65.5353 205.325C64.8132 204.304 64.2985 203.151 64.0208 201.93C63.7412 200.71 63.7043 199.446 63.9123 198.211C64.1203 196.976 64.5691 195.794 65.233 194.733C65.8969 193.672 66.7628 192.753 67.7812 192.029C68.7997 191.304 69.9505 190.788 71.1679 190.511C129.259 177.189 179.088 182.922 219.284 207.565C220.349 208.218 221.276 209.075 222.012 210.088C222.747 211.1 223.276 212.248 223.569 213.466C223.862 214.684 223.913 215.947 223.719 217.185C223.525 218.422 223.09 219.609 222.439 220.678M152.497 0C68.278 0 0 68.4991 0 152.997C0 237.504 68.278 306 152.499 306C236.723 306 305 237.504 305 152.997C305 68.5004 236.725 0 152.499 0" fill="white"/>
</svg>
