<svg width="21" height="21" viewBox="0 0 21 21" fill="none" xmlns="http://www.w3.org/2000/svg">
<g clip-path="url(#clip0_13_790)">
<path d="M16.068 8.77409V5.50677C16.0769 4.02838 15.4757 2.60686 14.4024 1.57024C13.3648 0.555488 12.0065 0 10.568 0C10.5458 0 10.519 0 10.4968 0C7.42836 0.00437392 4.93444 2.47127 4.93444 5.50677V8.77409C3.77654 8.90968 2.93039 9.8632 2.93039 11.0179V18.3574C2.93039 19.6039 3.94577 20.6318 5.215 20.6318H15.7919C17.0611 20.6318 18.0765 19.6039 18.0765 18.3574V11.0179C18.0721 9.86757 17.2259 8.90968 16.068 8.77409ZM5.82067 5.50677H5.82512C5.82512 2.9524 7.92269 0.861663 10.5012 0.861663H10.5057C11.7304 0.857289 12.9061 1.33405 13.7745 2.18259C14.6786 3.06175 15.1818 4.2602 15.1729 5.50677V8.77847H14.1931V5.50677C14.202 4.51389 13.8012 3.56037 13.0842 2.86055C12.4073 2.19571 11.4899 1.81955 10.5324 1.81955H10.5057C8.4571 1.81955 6.80043 3.4729 6.80043 5.5024V8.77847H5.82067V5.50677ZM13.3069 5.50677V8.77847H7.69557V5.50677C7.69557 3.9584 8.95144 2.69871 10.5101 2.69871H10.5369C11.2583 2.69871 11.9531 2.98302 12.4652 3.48602C13.0085 4.01964 13.3158 4.75008 13.3069 5.50677ZM17.2259 18.3705C17.2259 19.1359 16.5935 19.757 15.8142 19.757H5.23282C4.45346 19.757 3.82108 19.1359 3.82108 18.3705V11.0398C3.82108 10.2743 4.45346 9.65325 5.23282 9.65325H15.8142C16.5935 9.65325 17.2259 10.2743 17.2259 11.0398V18.3705Z" fill="white"/>
<path d="M12.0421 14.434C11.8462 13.756 11.2182 13.2924 10.5012 13.2924C9.615 13.2924 8.89354 13.9966 8.89354 14.8713C8.89354 15.5755 9.3656 16.1923 10.0559 16.3847V17.6094C10.0559 17.85 10.2563 18.0468 10.5012 18.0468C10.7462 18.0468 10.9466 17.85 10.9466 17.6094V16.3847C11.7972 16.1442 12.2915 15.2694 12.0421 14.434ZM10.5012 15.5712C10.1049 15.5712 9.78423 15.2563 9.78423 14.867C9.78423 14.4777 10.1049 14.1628 10.5012 14.1628C10.8976 14.1628 11.2182 14.4777 11.2182 14.867C11.2182 15.2563 10.8976 15.5712 10.5012 15.5712Z" fill="white"/>
</g>
<defs>
<clipPath id="clip0_13_790">
<rect width="21.0069" height="20.6318" fill="white"/>
</clipPath>
</defs>
</svg>
