<svg width="22" height="18" viewBox="0 0 22 18" fill="none" xmlns="http://www.w3.org/2000/svg">
<mask id="mask0_163_127" style="mask-type:alpha" maskUnits="userSpaceOnUse" x="0" y="0" width="22" height="18">
<rect width="22" height="18" fill="#D9D9D9"/>
</mask>
<g mask="url(#mask0_163_127)">
<path d="M11 13C12.25 13 13.3125 12.5625 14.1875 11.6875C15.0625 10.8125 15.5 9.75 15.5 8.5C15.5 7.25 15.0625 6.1875 14.1875 5.3125C13.3125 4.4375 12.25 4 11 4C9.75 4 8.6875 4.4375 7.8125 5.3125C6.9375 6.1875 6.5 7.25 6.5 8.5C6.5 9.75 6.9375 10.8125 7.8125 11.6875C8.6875 12.5625 9.75 13 11 13ZM11 11.2C10.25 11.2 9.6125 10.9375 9.0875 10.4125C8.5625 9.8875 8.3 9.25 8.3 8.5C8.3 7.75 8.5625 7.1125 9.0875 6.5875C9.6125 6.0625 10.25 5.8 11 5.8C11.75 5.8 12.3875 6.0625 12.9125 6.5875C13.4375 7.1125 13.7 7.75 13.7 8.5C13.7 9.25 13.4375 9.8875 12.9125 10.4125C12.3875 10.9375 11.75 11.2 11 11.2ZM11 16C8.56667 16 6.35 15.3208 4.35 13.9625C2.35 12.6042 0.9 10.7833 0 8.5C0.9 6.21667 2.35 4.39583 4.35 3.0375C6.35 1.67917 8.56667 1 11 1C13.4333 1 15.65 1.67917 17.65 3.0375C19.65 4.39583 21.1 6.21667 22 8.5C21.1 10.7833 19.65 12.6042 17.65 13.9625C15.65 15.3208 13.4333 16 11 16ZM11 14C12.8833 14 14.6125 13.5042 16.1875 12.5125C17.7625 11.5208 18.9667 10.1833 19.8 8.5C18.9667 6.81667 17.7625 5.47917 16.1875 4.4875C14.6125 3.49583 12.8833 3 11 3C9.11667 3 7.3875 3.49583 5.8125 4.4875C4.2375 5.47917 3.03333 6.81667 2.2 8.5C3.03333 10.1833 4.2375 11.5208 5.8125 12.5125C7.3875 13.5042 9.11667 14 11 14Z" fill="white"/>
</g>
</svg>
