<svg width="22" height="18" viewBox="0 0 22 18" fill="none" xmlns="http://www.w3.org/2000/svg">
<path d="M10.8325 5.69841L13.9817 8.68263L13.9967 8.52631C13.9967 6.9584 12.6521 5.6842 10.9974 5.6842L10.8325 5.69841Z" fill="white"/>
<path d="M10.9975 3.78955C13.7569 3.78955 15.9964 5.91167 15.9964 8.52641C15.9964 9.13746 15.8664 9.7201 15.6415 10.2553L18.5658 13.0264C20.0755 11.8327 21.2652 10.2885 22 8.52641C20.2654 4.36748 16.0014 1.42114 10.9976 1.42114C9.59787 1.42114 8.2582 1.65797 7.01349 2.08429L9.17299 4.12585C9.7378 3.91745 10.3527 3.78955 10.9975 3.78955Z" fill="white"/>
<path d="M0.999755 1.2079L3.27923 3.3679L3.73414 3.79897C2.08452 5.02107 0.779821 6.64582 0 8.52632C1.72962 12.6853 5.99863 15.6316 10.9975 15.6316C12.5472 15.6316 14.0268 15.3474 15.3815 14.8311L15.8064 15.2337L18.7208 18L19.9955 16.7969L2.27446 0L0.999755 1.2079ZM6.52852 6.44213L8.07316 7.90581C8.02818 8.10951 7.99818 8.31317 7.99818 8.52632C7.99818 10.0942 9.34286 11.3684 10.9975 11.3684C11.2224 11.3684 11.4374 11.34 11.6474 11.2974L13.192 12.7611C12.5271 13.0737 11.7873 13.2632 10.9975 13.2632C8.23813 13.2632 5.99862 11.1411 5.99862 8.52632C5.99862 7.77792 6.19859 7.07685 6.52852 6.44213Z" fill="white"/>
</svg>
