<svg width="23" height="22" viewBox="0 0 23 22" fill="none" xmlns="http://www.w3.org/2000/svg">
<g clip-path="url(#clip0_8_159)">
<path d="M17.6928 9.57878V6.31146C17.7022 4.83307 17.0621 3.41155 15.9192 2.37493C14.8143 1.36018 13.368 0.804688 11.8363 0.804688C11.8126 0.804688 11.7841 0.804688 11.7604 0.804688C8.49312 0.809061 5.83755 3.27595 5.83755 6.31146V9.57878C4.60461 9.71437 3.70361 10.6679 3.70361 11.8226V19.162C3.70361 20.4086 4.78481 21.4365 6.1363 21.4365H17.3988C18.7502 21.4365 19.8314 20.4086 19.8314 19.162V11.8226C19.8267 10.6723 18.9257 9.71437 17.6928 9.57878ZM6.78123 6.31146H6.78597C6.78597 3.75709 9.01949 1.66635 11.7652 1.66635H11.7699C13.074 1.66198 14.3259 2.13873 15.2506 2.98728C16.2132 3.86643 16.7491 5.06489 16.7396 6.31146V9.58315H15.6963V6.31146C15.7058 5.31858 15.279 4.36506 14.5156 3.66523C13.7948 3.0004 12.8179 2.62424 11.7984 2.62424H11.7699C9.58854 2.62424 7.82449 4.27758 7.82449 6.30708V9.58315H6.78123V6.31146ZM14.7527 6.31146V9.58315H8.77764V6.31146C8.77764 4.76309 10.1149 3.5034 11.7746 3.5034H11.8031C12.5713 3.5034 13.3111 3.7877 13.8564 4.29071C14.435 4.82432 14.7622 5.55477 14.7527 6.31146ZM18.9257 19.1752C18.9257 19.9406 18.2523 20.5617 17.4225 20.5617H6.15527C5.32541 20.5617 4.65203 19.9406 4.65203 19.1752V11.8445C4.65203 11.079 5.32541 10.4579 6.15527 10.4579H17.4225C18.2523 10.4579 18.9257 11.079 18.9257 11.8445V19.1752Z" fill="white"/>
<path d="M13.406 15.2386C13.1973 14.5607 12.5287 14.097 11.7652 14.097C10.8216 14.097 10.0533 14.8012 10.0533 15.676C10.0533 16.3802 10.556 16.997 11.291 17.1894V18.4141C11.291 18.6547 11.5044 18.8515 11.7652 18.8515C12.0261 18.8515 12.2394 18.6547 12.2394 18.4141V17.1894C13.1452 16.9488 13.6716 16.0741 13.406 15.2386ZM11.7652 16.3759C11.3432 16.3759 11.0018 16.0609 11.0018 15.6717C11.0018 15.2824 11.3432 14.9675 11.7652 14.9675C12.1873 14.9675 12.5287 15.2824 12.5287 15.6717C12.5287 16.0609 12.1873 16.3759 11.7652 16.3759Z" fill="white"/>
</g>
<defs>
<clipPath id="clip0_8_159">
<rect width="22.3684" height="20.6318" fill="white" transform="translate(0.583374 0.804688)"/>
</clipPath>
</defs>
</svg>
