<svg width="25" height="25" viewBox="0 0 25 25" fill="none" xmlns="http://www.w3.org/2000/svg">
<path d="M12.8325 9.69841L15.9817 12.6826L15.9967 12.5263C15.9967 10.9584 14.6521 9.6842 12.9974 9.6842L12.8325 9.69841Z" fill="white"/>
<path d="M12.9975 7.78955C15.7569 7.78955 17.9964 9.91167 17.9964 12.5264C17.9964 13.1375 17.8664 13.7201 17.6415 14.2553L20.5658 17.0264C22.0755 15.8327 23.2652 14.2885 24 12.5264C22.2654 8.36748 18.0014 5.42114 12.9976 5.42114C11.5979 5.42114 10.2582 5.65797 9.01349 6.08429L11.173 8.12585C11.7378 7.91745 12.3527 7.78955 12.9975 7.78955Z" fill="white"/>
<path d="M2.99976 5.2079L5.27923 7.3679L5.73414 7.79897C4.08452 9.02107 2.77982 10.6458 2 12.5263C3.72962 16.6853 7.99863 19.6316 12.9975 19.6316C14.5472 19.6316 16.0268 19.3474 17.3815 18.8311L17.8064 19.2337L20.7208 22L21.9955 20.7969L4.27446 4L2.99976 5.2079ZM8.52852 10.4421L10.0732 11.9058C10.0282 12.1095 9.99818 12.3132 9.99818 12.5263C9.99818 14.0942 11.3429 15.3684 12.9975 15.3684C13.2224 15.3684 13.4374 15.34 13.6474 15.2974L15.192 16.7611C14.5271 17.0737 13.7873 17.2632 12.9975 17.2632C10.2381 17.2632 7.99862 15.1411 7.99862 12.5263C7.99862 11.7779 8.19859 11.0768 8.52852 10.4421Z" fill="white"/>
</svg>
